<svg xmlns="http://www.w3.org/2000/svg" viewBox="0 0 143.91 168.16">
    <defs>
        <style>.a{fill:#231f20;}</style>
    </defs>
    <title>Asset 1</title>
    <path class="a" d="M8.2,161.1a3,3,0,0,0-1-2.54,5.5,5.5,0,0,0-3.36-.79H0V168H1.73v-3.45H4L6.46,168H8.67L6,164.31A3,3,0,0,0,8.2,161.1ZM3.89,163H1.73v-3.67H3.94a3.63,3.63,0,0,1,1.94.38,1.57,1.57,0,0,1,.54,1.38,1.83,1.83,0,0,1-.53,1.46A3.21,3.21,0,0,1,3.89,163Z"/>
    <path class="a" d="M14.63,162a7.6,7.6,0,0,1-2.07-.71,1.09,1.09,0,0,1-.48-1,1,1,0,0,1,.48-.93,2.26,2.26,0,0,1,1.24-.31,4.93,4.93,0,0,1,1.54.26,3.57,3.57,0,0,1,1.23.68l.93-1.31a5.21,5.21,0,0,0-1.68-.91,6.22,6.22,0,0,0-2-.32,4.18,4.18,0,0,0-2.56.77,2.59,2.59,0,0,0-1,2.2,2.47,2.47,0,0,0,.91,2.11,3.68,3.68,0,0,0,1,.6,14.61,14.61,0,0,0,1.72.5,4.86,4.86,0,0,1,1.6.6,1.06,1.06,0,0,1,.46.92,1.12,1.12,0,0,1-.49,1,2.21,2.21,0,0,1-1.33.36A4.87,4.87,0,0,1,11,165.19L9.86,166.5a6.27,6.27,0,0,0,4.27,1.66,4,4,0,0,0,2.66-.84,2.7,2.7,0,0,0,1-2.18,2.56,2.56,0,0,0-.8-2A5.67,5.67,0,0,0,14.63,162Z"/>
    <polygon class="a" points="25.71 163.66 30.63 163.66 30.63 162.12 25.71 162.12 25.71 159.4 31.19 159.4 31.19 157.77 23.98 157.77 23.98 168.04 31.37 168.04 31.37 166.41 25.71 166.41 25.71 163.66"/>
    <polygon class="a" points="41.28 165.44 35.32 157.77 33.59 157.77 33.59 168.04 35.32 168.04 35.32 160.54 41.14 168.04 43.02 168.04 43.02 157.77 41.28 157.77 41.28 165.44"/>
    <polygon class="a" points="47.6 163.66 52.52 163.66 52.52 162.12 47.6 162.12 47.6 159.4 53.08 159.4 53.08 157.77 45.87 157.77 45.87 168.04 53.26 168.04 53.26 166.41 47.6 166.41 47.6 163.66"/>
    <path class="a" d="M63.67,161.1a3,3,0,0,0-1-2.54,5.54,5.54,0,0,0-3.36-.79H55.48V168h1.73v-3.45h2.28L61.94,168h2.2l-2.68-3.73A3,3,0,0,0,63.67,161.1ZM59.37,163H57.21v-3.67h2.2a3.6,3.6,0,0,1,1.94.38,1.57,1.57,0,0,1,.55,1.38,1.83,1.83,0,0,1-.53,1.46A3.21,3.21,0,0,1,59.37,163Z"/>
    <path class="a" d="M73.28,165.86a4.35,4.35,0,0,1-2.44.64,3.41,3.41,0,0,1-2.49-1,3.84,3.84,0,0,1,0-5.27,3.63,3.63,0,0,1,2.61-1,4.68,4.68,0,0,1,1.42.2,3.64,3.64,0,0,1,1.21.71l.93-1.32a5.39,5.39,0,0,0-3.69-1.29,5.2,5.2,0,0,0-3.78,1.53,5.43,5.43,0,0,0,0,7.61,5.23,5.23,0,0,0,3.81,1.5A5.34,5.34,0,0,0,75,166.55V163H73.28Z"/>
    <polygon class="a" points="80.29 162.44 77.49 157.77 75.59 157.77 79.41 163.98 79.41 168.04 81.17 168.04 81.17 163.98 84.99 157.77 83.1 157.77 80.29 162.44"/>
    <path class="a" d="M97.44,165.86a4.4,4.4,0,0,1-2.45.64,3.69,3.69,0,0,1-2.46-6.27,3.65,3.65,0,0,1,2.61-1,4.68,4.68,0,0,1,1.42.2,3.55,3.55,0,0,1,1.21.71l.93-1.32A5.39,5.39,0,0,0,95,157.52a5.2,5.2,0,0,0-3.78,1.53,5.43,5.43,0,0,0,0,7.61,5.23,5.23,0,0,0,3.81,1.5,5.34,5.34,0,0,0,4.16-1.61V163H97.44Z"/>
    <path class="a" d="M109.65,161.1a3,3,0,0,0-1-2.54,5.52,5.52,0,0,0-3.36-.79h-3.82V168h1.73v-3.45h2.28l2.45,3.45h2.21l-2.69-3.73A3,3,0,0,0,109.65,161.1ZM105.34,163h-2.16v-3.67h2.2a3.58,3.58,0,0,1,1.94.38,1.55,1.55,0,0,1,.55,1.38,1.83,1.83,0,0,1-.53,1.46A3.21,3.21,0,0,1,105.34,163Z"/>
    <path class="a" d="M116.89,157.52A5.31,5.31,0,0,0,113,159a5.38,5.38,0,0,0,0,7.58,5.64,5.64,0,0,0,7.7,0,5.38,5.38,0,0,0,0-7.58A5.31,5.31,0,0,0,116.89,157.52Zm2.58,7.95a3.62,3.62,0,0,1-5.16,0,3.84,3.84,0,0,1,0-5.28,3.6,3.6,0,0,1,5.16,0,3.84,3.84,0,0,1,0,5.28Z"/>
    <path class="a" d="M131.32,163.45a3.34,3.34,0,0,1-.71,2.24,2.63,2.63,0,0,1-3.82,0,3.34,3.34,0,0,1-.7-2.24v-5.68h-1.74v5.76a4.56,4.56,0,0,0,1.22,3.41,4.68,4.68,0,0,0,6.26,0,4.56,4.56,0,0,0,1.22-3.41v-5.76h-1.73Z"/>
    <path class="a" d="M139.29,157.77h-3.52V168h1.73v-3h1.82a5.36,5.36,0,0,0,3.36-.87,3.27,3.27,0,0,0,1.09-2.73,3.36,3.36,0,0,0-1.07-2.76A5.25,5.25,0,0,0,139.29,157.77Zm2.19,5.13a2.7,2.7,0,0,1-2,.55h-2v-4.11h1.76a3.9,3.9,0,0,1,2.08.44,1.68,1.68,0,0,1,.66,1.51A2.27,2.27,0,0,1,141.48,162.9Z"/>
    <path class="a-logo" d="M143.91,91.2c0-23.39-10.79-31.84-37-36.52-21.57-3.9-30.75-6.86-34.18-14.3-1.32-2.86-1.8-6.39-1.8-10.88a32.79,32.79,0,0,1,.94-7.88C74.72,9.82,84.29,2.88,97,2.88V0C84.4,0,74.43,5.81,68.7,15.15,60.78,3.26,44.45.75,29.08.75H0v3H11.86C38.18,3.72,53.55,0,53.55,33.57c0,21.5-12.79,29.11-34.67,29.11H0v3H21.66c21,0,24.29,10.57,25.59,22.25L48.55,99c2.59,21.32,3.89,33.37,26.51,33.37h29.82C131,132.39,143.91,114.76,143.91,91.2ZM70.84,108.39,69.31,95.12C66.53,70.65,64,65.3,47.56,64.16l6.13-.37c6.15-.07,9.69-2.61,12.78-11.79,4.65,15.71,16.41,19.33,38.41,22.83,20.68,3.24,27.92,8.81,27.92,27.52,0,16.19-9.93,24.69-27.2,24.69C90.63,127,73.22,125.58,70.84,108.39Z"/>
</svg>
